<mxfile host="app.diagrams.net" modified="2023-12-12T03:27:18.615Z" agent="Mozilla/5.0 (Macintosh; Intel Mac OS X 10_15_7) AppleWebKit/537.36 (KHTML, like Gecko) Chrome/119.0.0.0 Safari/537.36" etag="ln1mMjq4Zmn8WhqpZAyn" version="22.1.7" type="github">
  <diagram name="第 1 页" id="RpbkFDHF-_dFcN8u6Mnz">
    <mxGraphModel dx="1195" dy="634" grid="1" gridSize="10" guides="1" tooltips="1" connect="1" arrows="1" fold="1" page="1" pageScale="1" pageWidth="827" pageHeight="1169" math="0" shadow="0">
      <root>
        <mxCell id="0" />
        <mxCell id="1" parent="0" />
        <mxCell id="I0FjkfJMj4wii_VnlXVJ-1" value="读缓存链路" style="swimlane;childLayout=stackLayout;resizeParent=1;resizeParentMax=0;startSize=20;html=1;" vertex="1" parent="1">
          <mxGeometry x="100" y="135" width="440" height="460" as="geometry" />
        </mxCell>
        <mxCell id="I0FjkfJMj4wii_VnlXVJ-2" value="通过explore查询" style="swimlane;startSize=20;html=1;" vertex="1" parent="I0FjkfJMj4wii_VnlXVJ-1">
          <mxGeometry y="20" width="240" height="440" as="geometry" />
        </mxCell>
        <mxCell id="I0FjkfJMj4wii_VnlXVJ-33" value="&lt;strike&gt;MaxPtCacheManager&lt;br&gt;服务已经无调用 但是代码还在&lt;br&gt;&lt;/strike&gt;" style="rounded=0;whiteSpace=wrap;html=1;" vertex="1" parent="I0FjkfJMj4wii_VnlXVJ-2">
          <mxGeometry x="60" y="115" width="120" height="60" as="geometry" />
        </mxCell>
        <mxCell id="I0FjkfJMj4wii_VnlXVJ-8" value="咨询" style="swimlane;startSize=20;html=1;" vertex="1" parent="I0FjkfJMj4wii_VnlXVJ-1">
          <mxGeometry x="240" y="20" width="200" height="440" as="geometry" />
        </mxCell>
        <mxCell id="I0FjkfJMj4wii_VnlXVJ-22" value="TBase" style="rounded=0;whiteSpace=wrap;html=1;fillColor=#f8cecc;strokeColor=#b85450;" vertex="1" parent="I0FjkfJMj4wii_VnlXVJ-8">
          <mxGeometry x="40" y="255" width="120" height="60" as="geometry" />
        </mxCell>
        <mxCell id="I0FjkfJMj4wii_VnlXVJ-27" value="" style="edgeStyle=orthogonalEdgeStyle;rounded=0;orthogonalLoop=1;jettySize=auto;html=1;" edge="1" parent="I0FjkfJMj4wii_VnlXVJ-8" source="I0FjkfJMj4wii_VnlXVJ-24" target="I0FjkfJMj4wii_VnlXVJ-26">
          <mxGeometry relative="1" as="geometry" />
        </mxCell>
        <mxCell id="I0FjkfJMj4wii_VnlXVJ-39" value="传入多个标签" style="edgeLabel;html=1;align=center;verticalAlign=middle;resizable=0;points=[];" vertex="1" connectable="0" parent="I0FjkfJMj4wii_VnlXVJ-27">
          <mxGeometry x="-0.2" relative="1" as="geometry">
            <mxPoint as="offset" />
          </mxGeometry>
        </mxCell>
        <mxCell id="I0FjkfJMj4wii_VnlXVJ-24" value="标签查询" style="ellipse;whiteSpace=wrap;html=1;" vertex="1" parent="I0FjkfJMj4wii_VnlXVJ-8">
          <mxGeometry x="82.5" y="35" width="35" height="35" as="geometry" />
        </mxCell>
        <mxCell id="I0FjkfJMj4wii_VnlXVJ-28" value="" style="edgeStyle=orthogonalEdgeStyle;rounded=0;orthogonalLoop=1;jettySize=auto;html=1;" edge="1" parent="I0FjkfJMj4wii_VnlXVJ-8" source="I0FjkfJMj4wii_VnlXVJ-26" target="I0FjkfJMj4wii_VnlXVJ-22">
          <mxGeometry relative="1" as="geometry" />
        </mxCell>
        <mxCell id="I0FjkfJMj4wii_VnlXVJ-29" value="本地未命中的标签 继续下探查询&amp;nbsp;" style="edgeLabel;html=1;align=center;verticalAlign=middle;resizable=0;points=[];" vertex="1" connectable="0" parent="I0FjkfJMj4wii_VnlXVJ-28">
          <mxGeometry x="-0.2909" y="-2" relative="1" as="geometry">
            <mxPoint as="offset" />
          </mxGeometry>
        </mxCell>
        <mxCell id="I0FjkfJMj4wii_VnlXVJ-26" value="LocalCache" style="rounded=1;whiteSpace=wrap;html=1;" vertex="1" parent="I0FjkfJMj4wii_VnlXVJ-8">
          <mxGeometry x="40" y="145" width="120" height="60" as="geometry" />
        </mxCell>
        <mxCell id="I0FjkfJMj4wii_VnlXVJ-30" value="OB" style="shape=cylinder3;whiteSpace=wrap;html=1;boundedLbl=1;backgroundOutline=1;size=15;" vertex="1" parent="I0FjkfJMj4wii_VnlXVJ-8">
          <mxGeometry x="70" y="350" width="60" height="80" as="geometry" />
        </mxCell>
        <mxCell id="I0FjkfJMj4wii_VnlXVJ-31" style="edgeStyle=orthogonalEdgeStyle;rounded=0;orthogonalLoop=1;jettySize=auto;html=1;entryX=0.5;entryY=0;entryDx=0;entryDy=0;entryPerimeter=0;" edge="1" parent="I0FjkfJMj4wii_VnlXVJ-8" source="I0FjkfJMj4wii_VnlXVJ-22" target="I0FjkfJMj4wii_VnlXVJ-30">
          <mxGeometry relative="1" as="geometry" />
        </mxCell>
        <mxCell id="I0FjkfJMj4wii_VnlXVJ-32" value="Tbase未命中的标签 继续下探DB查询" style="edgeLabel;html=1;align=center;verticalAlign=middle;resizable=0;points=[];" vertex="1" connectable="0" parent="I0FjkfJMj4wii_VnlXVJ-31">
          <mxGeometry x="0.1556" relative="1" as="geometry">
            <mxPoint as="offset" />
          </mxGeometry>
        </mxCell>
        <mxCell id="I0FjkfJMj4wii_VnlXVJ-41" style="edgeStyle=orthogonalEdgeStyle;rounded=0;orthogonalLoop=1;jettySize=auto;html=1;entryX=0;entryY=0.5;entryDx=0;entryDy=0;exitX=0.5;exitY=1;exitDx=0;exitDy=0;curved=1;" edge="1" parent="I0FjkfJMj4wii_VnlXVJ-1" source="I0FjkfJMj4wii_VnlXVJ-33" target="I0FjkfJMj4wii_VnlXVJ-22">
          <mxGeometry relative="1" as="geometry" />
        </mxCell>
        <mxCell id="I0FjkfJMj4wii_VnlXVJ-42" value="查询最大分区" style="edgeLabel;html=1;align=center;verticalAlign=middle;resizable=0;points=[];" vertex="1" connectable="0" parent="I0FjkfJMj4wii_VnlXVJ-41">
          <mxGeometry x="-0.4576" y="27" relative="1" as="geometry">
            <mxPoint as="offset" />
          </mxGeometry>
        </mxCell>
      </root>
    </mxGraphModel>
  </diagram>
</mxfile>
